<svg preserveAspectRatio="none" width="100%" height="100%" overflow="visible" style="display: block;" viewBox="0 0 18 18" fill="none" xmlns="http://www.w3.org/2000/svg">
<g id="svgviewer-output (41) 1">
<path id="Vector" fill-rule="evenodd" clip-rule="evenodd" d="M6.74999 2.25C6.74999 1.00736 7.75735 0 8.99999 0C10.2426 0 11.25 1.00736 11.25 2.25V2.29039L11.285 2.27019C12.3612 1.64887 13.7372 2.01759 14.3585 3.09375C14.9798 4.16991 14.6112 5.54599 13.535 6.16731L13.5 6.1875L13.535 6.20769C14.6112 6.82901 14.9798 8.2051 14.3585 9.28125C13.7372 10.3574 12.3612 10.7261 11.285 10.1048L11.25 10.0846V10.125C11.25 11.3677 10.2426 12.375 8.99999 12.375C7.75735 12.375 6.74999 11.3677 6.74999 10.125V10.0846L6.71501 10.1048C5.63886 10.7261 4.26278 10.3574 3.64146 9.28125C3.02014 8.2051 3.38886 6.82901 4.46501 6.20769L4.49999 6.1875L4.46501 6.16731C3.38886 5.54599 3.02014 4.16991 3.64146 3.09375C4.26277 2.01759 5.63886 1.64887 6.71501 2.27019L6.74999 2.29039V2.25ZM11.25 6.1875C11.25 7.43014 10.2426 8.4375 8.99999 8.4375C7.75735 8.4375 6.74999 7.43014 6.74999 6.1875C6.74999 4.94486 7.75735 3.9375 8.99999 3.9375C10.2426 3.9375 11.25 4.94486 11.25 6.1875Z" fill="var(--fill-0, #FF6600)"/>
<path id="Vector_2" d="M7.875 18H6.75C3.6434 18 1.125 15.4816 1.125 12.375V11.25H2.25C5.3566 11.25 7.875 13.7684 7.875 16.875V18Z" fill="var(--fill-0, #FF6600)"/>
<path id="Vector_3" d="M11.25 18H10.125V16.875C10.125 13.7684 12.6434 11.25 15.75 11.25H16.875V12.375C16.875 15.4816 14.3566 18 11.25 18Z" fill="var(--fill-0, #FF6600)"/>
</g>
</svg>
