<svg preserveAspectRatio="none" width="100%" height="100%" overflow="visible" style="display: block;" viewBox="0 0 20 15" fill="none" xmlns="http://www.w3.org/2000/svg">
<g id="Group 2">
<path id="Vector" d="M0 12.5V5.30337C0 5.164 0.146688 5.07337 0.27135 5.13562L8.323 9.16149C9.37862 9.68937 10.6214 9.68937 11.677 9.16149L19.7286 5.13562C19.8534 5.07337 20 5.164 20 5.30337V12.5C20 13.8807 18.8807 15 17.5 15H2.5C1.11929 15 0 13.8807 0 12.5Z" fill="var(--fill-0, #222222)"/>
<path id="Vector_2" d="M0 2.5V3.63411C0 3.70514 0.0401251 3.77006 0.10365 3.80182L8.323 7.9115C9.37862 8.43937 10.6214 8.43937 11.677 7.9115L19.8964 3.80182C19.9599 3.77006 20 3.70514 20 3.63412V2.5C20 1.11929 18.8807 0 17.5 0H2.5C1.11929 0 0 1.11929 0 2.5Z" fill="var(--fill-0, #222222)"/>
</g>
</svg>
