<svg preserveAspectRatio="none" width="100%" height="100%" overflow="visible" style="display: block;" viewBox="0 0 20 20" fill="none" xmlns="http://www.w3.org/2000/svg">
<g id="svgviewer-output (41) 1">
<path id="Vector" fill-rule="evenodd" clip-rule="evenodd" d="M7.49999 2.5C7.49999 1.11929 8.61928 0 9.99999 0C11.3807 0 12.5 1.11929 12.5 2.5V2.54488L12.5389 2.52244C13.7346 1.83208 15.2635 2.24176 15.9539 3.4375C16.6443 4.63324 16.2346 6.16221 15.0389 6.85256L15 6.875L15.0389 6.89744C16.2346 7.58779 16.6443 9.11678 15.9539 10.3125C15.2635 11.5082 13.7346 11.9179 12.5389 11.2276L12.5 11.2051V11.25C12.5 12.6307 11.3807 13.75 9.99999 13.75C8.61928 13.75 7.49999 12.6307 7.49999 11.25V11.2051L7.46113 11.2276C6.2654 11.9179 4.73643 11.5082 4.04606 10.3125C3.35571 9.11678 3.7654 7.58779 4.96113 6.89744L4.99999 6.875L4.96113 6.85256C3.7654 6.16221 3.35571 4.63324 4.04606 3.4375C4.73641 2.24176 6.2654 1.83208 7.46113 2.52244L7.49999 2.54488V2.5ZM12.5 6.875C12.5 8.25571 11.3807 9.375 9.99999 9.375C8.61928 9.375 7.49999 8.25571 7.49999 6.875C7.49999 5.49429 8.61928 4.375 9.99999 4.375C11.3807 4.375 12.5 5.49429 12.5 6.875Z" fill="var(--fill-0, #FF6600)"/>
<path id="Vector_2" d="M8.75 20H7.5C4.04822 20 1.25 17.2017 1.25 13.75V12.5H2.5C5.95178 12.5 8.75 15.2983 8.75 18.75V20Z" fill="var(--fill-0, #FF6600)"/>
<path id="Vector_3" d="M12.5 20H11.25V18.75C11.25 15.2983 14.0483 12.5 17.5 12.5H18.75V13.75C18.75 17.2017 15.9517 20 12.5 20Z" fill="var(--fill-0, #FF6600)"/>
</g>
</svg>
