<svg preserveAspectRatio="none" width="100%" height="100%" overflow="visible" style="display: block;" viewBox="0 0 303.239 7.64201" fill="none" xmlns="http://www.w3.org/2000/svg">
<path id="Line 4" d="M0.838851 3.77728L1.6777 1.42222L1.2708 1.27728H0.838851V3.77728ZM9.17635 3.26563L8.62966 0.82614L9.17635 3.26563ZM14.8014 2.80294L14.6527 5.29851L14.8014 2.80294ZM16.6764 3.0407L16.2001 5.49493L16.6764 3.0407ZM25.1139 4.51763L24.3897 6.91046L25.1139 4.51763ZM33.5514 3.9743L33.1026 6.4337L33.5514 3.9743ZM37.3014 3.99757L37.1702 1.50102L37.3014 3.99757ZM39.1764 4.2441L38.4241 6.62825L39.1764 4.2441ZM42.9264 4.83736L42.178 2.45199L42.9264 4.83736ZM46.6764 3.57762L45.7428 1.25848L46.6764 3.57762ZM59.8014 4.32769L59.3501 1.86876L59.8014 4.32769ZM62.6139 3.45028L61.7336 1.11037L62.6139 3.45028ZM65.4264 2.66866L65.2236 0.176897L65.4264 2.66866ZM69.1764 2.72443L68.4502 5.11665L69.1764 2.72443ZM82.3014 3.94793L81.2867 1.66307L82.3014 3.94793ZM85.1139 3.42298L84.9692 0.927167L85.1139 3.42298ZM86.0514 3.36866L86.196 5.86447L86.0514 3.36866ZM87.9264 3.34054L87.8565 5.83957L87.9264 3.34054ZM95.4264 4.60784L94.7306 2.20659L95.4264 4.60784ZM97.3014 4.06458L96.6056 1.66334L97.3014 4.06458ZM99.1764 3.83029L99.0769 6.32831L99.1764 3.83029ZM106.676 2.7932L106.19 5.2454L106.676 2.7932ZM107.614 2.9792L107.127 5.4314L107.614 2.9792ZM108.551 3.1652L109.038 0.712991L108.551 3.1652ZM111.364 3.91673L110.642 6.31023L111.364 3.91673ZM115.114 3.84127L114.305 1.47568L115.114 3.84127ZM119.801 3.69683L119.367 6.15876L119.801 3.69683ZM123.551 4.36541L123.111 6.82635L123.551 4.36541ZM125.426 4.05847L124.297 1.82802L125.426 4.05847ZM130.114 3.88371L128.728 5.96428L130.114 3.88371ZM136.676 2.81623L136.026 5.23007L136.676 2.81623ZM141.364 4.3802L140.377 6.67705L141.364 4.3802ZM144.176 5.03355L143.775 2.56598L144.176 5.03355ZM147.926 4.66331L147.695 7.15255L147.926 4.66331ZM153.551 3.77118L152.602 1.45828V1.45828L153.551 3.77118ZM157.301 3.70482L157.02 6.18896L157.301 3.70482ZM159.176 3.46285L158.306 1.11917L159.176 3.46285ZM172.301 4.49936L171.879 6.96349L172.301 4.49936ZM174.176 4.52241L173.814 2.04887L174.176 4.52241ZM177.926 4.10209L177.906 1.60218L177.926 4.10209ZM187.301 4.07283L187.028 1.58783L187.301 4.07283ZM189.176 3.81805L188.777 1.35012L189.176 3.81805ZM192.926 3.56368L192.403 6.00838L192.926 3.56368ZM197.614 3.78874L197.122 1.33768L197.614 3.78874ZM202.301 4.68822L201.268 6.96486L202.301 4.68822ZM206.051 4.5988L205.601 2.13965L206.051 4.5988ZM207.926 4.45671L207.848 6.95548L207.926 4.45671ZM211.676 4.69968L211.27 7.16642L211.676 4.69968ZM226.676 2.96111L228.078 0.890672L226.676 2.96111ZM227.614 3.59556L226.213 5.666L227.614 3.59556ZM234.176 3.80728L234.058 6.30447L234.176 3.80728ZM239.801 2.89906L238.933 0.554658L239.801 2.89906ZM245.426 4.21072L244.084 2.10137L245.426 4.21072ZM250.114 3.22558L249.129 5.52322L250.114 3.22558ZM258.551 2.80038L257.858 0.398372L258.551 2.80038ZM264.176 4.61384L263.47 2.2157L264.176 4.61384ZM266.051 4.06157L265.345 1.66343L266.051 4.06157ZM288.551 5.04037L288.298 7.5275L288.551 5.04037ZM297.926 3.14147L296.864 5.40431L297.926 3.14147ZM300.739 4.11986H303.239V3.76245L303.139 3.41935L300.739 4.11986ZM300.639 3.77728V1.27728H297.305L298.239 4.4778L300.639 3.77728ZM0.738851 3.77728V6.27728H0.838851V3.77728V1.27728H0.738851V3.77728ZM0.838851 3.77728L0 6.13235L1.825 6.78239L2.66385 4.42733L3.5027 2.07227L1.6777 1.42222L0.838851 3.77728ZM2.66385 4.42733L1.825 6.78239C3.16465 7.25956 4.86953 7.63327 6.4083 6.97604L5.42635 4.67696L4.4444 2.37788C4.62454 2.30095 4.6822 2.3421 4.49197 2.32491C4.30541 2.30805 3.98479 2.24398 3.5027 2.07227L2.66385 4.42733ZM5.42635 4.67696L6.4083 6.97604L7.3458 6.57563L6.36385 4.27655L5.3819 1.97747L4.4444 2.37788L5.42635 4.67696ZM6.36385 4.27655L7.3458 6.57563L8.2833 6.17522L7.30135 3.87614L6.3194 1.57706L5.3819 1.97747L6.36385 4.27655ZM7.30135 3.87614L8.2833 6.17522C8.77631 5.96465 9.25587 5.80982 9.72304 5.70513L9.17635 3.26563L8.62966 0.82614C7.84683 1.00157 7.07639 1.25374 6.3194 1.57706L7.30135 3.87614ZM9.17635 3.26563L9.72304 5.70513L10.6605 5.49504L10.1139 3.05554L9.56716 0.616048L8.62966 0.82614L9.17635 3.26563ZM10.1139 3.05554L10.6605 5.49504L11.598 5.28495L11.0514 2.84545L10.5047 0.405956L9.56716 0.616048L10.1139 3.05554ZM11.0514 2.84545L11.598 5.28495C12.0003 5.1948 12.3913 5.16377 12.7777 5.18679L12.9264 2.69122L13.075 0.195643C12.2114 0.144186 11.3524 0.215978 10.5047 0.405956L11.0514 2.84545ZM12.9264 2.69122L12.7777 5.18679L13.7152 5.24265L13.8639 2.74708L14.0125 0.251502L13.075 0.195643L12.9264 2.69122ZM13.8639 2.74708L13.7152 5.24265L14.6527 5.29851L14.8014 2.80294L14.95 0.307361L14.0125 0.251502L13.8639 2.74708ZM14.8014 2.80294L14.6527 5.29851C15.1659 5.32909 15.6815 5.39429 16.2001 5.49493L16.6764 3.0407L17.1526 0.586474C16.4212 0.444573 15.6868 0.351261 14.95 0.307361L14.8014 2.80294ZM16.6764 3.0407L16.2001 5.49493L17.1376 5.67683L17.6139 3.22261L18.0901 0.768381L17.1526 0.586474L16.6764 3.0407ZM17.6139 3.22261L17.1376 5.67683L18.0751 5.85874L18.5514 3.40452L19.0276 0.950288L18.0901 0.768381L17.6139 3.22261ZM18.5514 3.40452L18.0751 5.85874C18.7768 5.99488 19.4801 6.09731 20.185 6.16569L20.4264 3.67737L20.6677 1.18905C20.1226 1.13617 19.5759 1.05669 19.0276 0.950288L18.5514 3.40452ZM20.4264 3.67737L20.185 6.16569L21.1225 6.25663L21.3639 3.76832L21.6052 1.28L20.6677 1.18905L20.4264 3.67737ZM21.3639 3.76832L21.1225 6.25663L22.06 6.34758L22.3014 3.85926L22.5427 1.37094L21.6052 1.28L21.3639 3.76832ZM22.3014 3.85926L22.06 6.34758C22.5149 6.39172 22.9783 6.48334 23.4522 6.62675L24.1764 4.23392L24.9005 1.84109C24.1244 1.60622 23.3378 1.44807 22.5427 1.37094L22.3014 3.85926ZM24.1764 4.23392L23.4522 6.62675L24.3897 6.91046L25.1139 4.51763L25.838 2.1248L24.9005 1.84109L24.1764 4.23392ZM25.1139 4.51763L24.3897 6.91046L25.3272 7.19417L26.0514 4.80134L26.7755 2.40851L25.838 2.1248L25.1139 4.51763ZM26.0514 4.80134L25.3272 7.19417C26.5443 7.56251 27.7774 7.46792 28.9198 6.9732L27.9264 4.67907L26.9329 2.38494C26.8607 2.4162 26.8283 2.41779 26.8262 2.41793C26.8232 2.41812 26.82 2.41814 26.8148 2.41752C26.8094 2.41688 26.7967 2.41494 26.7755 2.40851L26.0514 4.80134ZM27.9264 4.67907L28.9198 6.9732L29.8573 6.56722L28.8639 4.27309L27.8704 1.97896L26.9329 2.38494L27.9264 4.67907ZM28.8639 4.27309L29.8573 6.56722L30.7948 6.16124L29.8014 3.86711L28.8079 1.57298L27.8704 1.97896L28.8639 4.27309ZM29.8014 3.86711L30.7948 6.16124C31.0003 6.07225 31.1246 6.07279 31.2276 6.09158L31.6764 3.63219L32.1251 1.17279C30.9781 0.963505 29.8524 1.12066 28.8079 1.57298L29.8014 3.86711ZM31.6764 3.63219L31.2276 6.09158L32.1651 6.26264L32.6139 3.80324L33.0626 1.34385L32.1251 1.17279L31.6764 3.63219ZM32.6139 3.80324L32.1651 6.26264L33.1026 6.4337L33.5514 3.9743L34.0001 1.5149L33.0626 1.34385L32.6139 3.80324ZM33.5514 3.9743L33.1026 6.4337C33.9159 6.58209 34.7355 6.63585 35.5575 6.59265L35.4264 4.0961L35.2952 1.59954C34.8672 1.62203 34.4368 1.59458 34.0001 1.5149L33.5514 3.9743ZM35.4264 4.0961L35.5575 6.59265L36.495 6.54339L36.3639 4.04683L36.2327 1.55028L35.2952 1.59954L35.4264 4.0961ZM36.3639 4.04683L36.495 6.54339L37.4325 6.49413L37.3014 3.99757L37.1702 1.50102L36.2327 1.55028L36.3639 4.04683ZM37.3014 3.99757L37.4325 6.49413C37.7448 6.47772 38.0709 6.51679 38.4241 6.62825L39.1764 4.2441L39.9286 1.85995C39.0318 1.57702 38.1079 1.45174 37.1702 1.50102L37.3014 3.99757ZM39.1764 4.2441L38.4241 6.62825L39.3616 6.92404L40.1139 4.53989L40.8661 2.15574L39.9286 1.85995L39.1764 4.2441ZM40.1139 4.53989L39.3616 6.92404L40.2991 7.21983L41.0514 4.83568L41.8036 2.45153L40.8661 2.15574L40.1139 4.53989ZM41.0514 4.83568L40.2991 7.21983C41.4121 7.57099 42.5609 7.57215 43.6747 7.22273L42.9264 4.83736L42.178 2.45199C42.0418 2.49473 41.9406 2.49476 41.8036 2.45153L41.0514 4.83568ZM42.9264 4.83736L43.6747 7.22273L44.6122 6.92862L43.8639 4.54325L43.1155 2.15788L42.178 2.45199L42.9264 4.83736ZM43.8639 4.54325L44.6122 6.92862L45.5497 6.63451L44.8014 4.24914L44.053 1.86377L43.1155 2.15788L43.8639 4.54325ZM44.8014 4.24914L45.5497 6.63451C46.239 6.41824 46.9258 6.17216 47.6099 5.89676L46.6764 3.57762L45.7428 1.25848C45.1769 1.48628 44.6137 1.68788 44.053 1.86377L44.8014 4.24914ZM46.6764 3.57762L47.6099 5.89676L48.5474 5.51936L47.6139 3.20022L46.6803 0.881083L45.7428 1.25848L46.6764 3.57762ZM47.6139 3.20022L48.5474 5.51936L49.4849 5.14196L48.5514 2.82282L47.6178 0.503683L46.6803 0.881083L47.6139 3.20022ZM48.5514 2.82282L49.4849 5.14196C49.7125 5.05035 49.8739 5.04343 50.0173 5.06722L50.4264 2.60091L50.8354 0.134596C49.7288 -0.0489335 48.6402 0.0920925 47.6178 0.503683L48.5514 2.82282ZM50.4264 2.60091L50.0173 5.06722L50.9548 5.2227L51.3639 2.75639L51.7729 0.290082L50.8354 0.134596L50.4264 2.60091ZM51.3639 2.75639L50.9548 5.2227L51.8923 5.37819L52.3014 2.91188L52.7104 0.445568L51.7729 0.290082L51.3639 2.75639ZM52.3014 2.91188L51.8923 5.37819C52.2684 5.44057 52.6717 5.56504 53.106 5.77079L54.1764 3.51149L55.2467 1.25219C54.431 0.86577 53.5843 0.590501 52.7104 0.445568L52.3014 2.91188ZM54.1764 3.51149L53.106 5.77079L54.0435 6.21492L55.1139 3.95562L56.1842 1.69632L55.2467 1.25219L54.1764 3.51149ZM55.1139 3.95562L54.0435 6.21492L54.981 6.65905L56.0514 4.39975L57.1217 2.14045L56.1842 1.69632L55.1139 3.95562ZM56.0514 4.39975L54.981 6.65905C56.0357 7.15866 57.191 7.34852 58.3776 7.13075L57.9264 4.67182L57.4751 2.21289C57.4117 2.22452 57.317 2.233 57.1217 2.14045L56.0514 4.39975ZM57.9264 4.67182L58.3776 7.13075L59.3151 6.95868L58.8639 4.49975L58.4126 2.04082L57.4751 2.21289L57.9264 4.67182ZM58.8639 4.49975L59.3151 6.95868L60.2526 6.78662L59.8014 4.32769L59.3501 1.86876L58.4126 2.04082L58.8639 4.49975ZM59.8014 4.32769L60.2526 6.78662C61.0311 6.64375 61.7995 6.42769 62.5566 6.14287L61.6764 3.80296L60.7961 1.46305C60.3032 1.64846 59.8216 1.78222 59.3501 1.86876L59.8014 4.32769ZM61.6764 3.80296L62.5566 6.14287L63.4941 5.79019L62.6139 3.45028L61.7336 1.11037L60.7961 1.46305L61.6764 3.80296ZM62.6139 3.45028L63.4941 5.79019L64.4316 5.43752L63.5514 3.09761L62.6711 0.757699L61.7336 1.11037L62.6139 3.45028ZM63.5514 3.09761L64.4316 5.43752C64.853 5.27898 65.2504 5.19124 65.6291 5.16043L65.4264 2.66866L65.2236 0.176897C64.3523 0.247786 63.4997 0.446001 62.6711 0.757699L63.5514 3.09761ZM65.4264 2.66866L65.6291 5.16043L66.5666 5.08416L66.3639 2.5924L66.1611 0.100627L65.2236 0.176897L65.4264 2.66866ZM66.3639 2.5924L66.5666 5.08416L67.5041 5.00789L67.3014 2.51613L67.0986 0.0243583L66.1611 0.100627L66.3639 2.5924ZM67.3014 2.51613L67.5041 5.00789C67.803 4.98358 68.1131 5.01432 68.4502 5.11665L69.1764 2.72443L69.9025 0.332218C68.9896 0.0551066 68.0497 -0.0530181 67.0986 0.0243583L67.3014 2.51613ZM69.1764 2.72443L68.4502 5.11665L69.3877 5.40123L70.1139 3.00901L70.84 0.616796L69.9025 0.332218L69.1764 2.72443ZM70.1139 3.00901L69.3877 5.40123L70.3252 5.68581L71.0514 3.29359L71.7775 0.901373L70.84 0.616796L70.1139 3.00901ZM71.0514 3.29359L70.3252 5.68581C71.3237 5.9889 72.3554 6.05297 73.3862 5.86006L72.9264 3.40272L72.4665 0.945382C72.2473 0.986397 72.029 0.977712 71.7775 0.901373L71.0514 3.29359ZM72.9264 3.40272L73.3862 5.86006L74.3237 5.68462L73.8639 3.22728L73.404 0.769938L72.4665 0.945382L72.9264 3.40272ZM73.8639 3.22728L74.3237 5.68462L75.2612 5.50917L74.8014 3.05183L74.3415 0.594494L73.404 0.769938L73.8639 3.22728ZM74.8014 3.05183L75.2612 5.50917C75.2569 5.50999 75.2471 5.51126 75.2343 5.51108C75.2214 5.51089 75.2131 5.50937 75.2114 5.50901C75.2068 5.508 75.2553 5.51709 75.3609 5.58241L76.6764 3.4565L77.9918 1.3306C76.9252 0.670583 75.6737 0.345178 74.3415 0.594494L74.8014 3.05183ZM76.6764 3.4565L75.3609 5.58241L76.2984 6.16253L77.6139 4.03662L78.9293 1.91071L77.9918 1.3306L76.6764 3.4565ZM77.6139 4.03662L76.2984 6.16253L77.2359 6.74264L78.5514 4.61673L79.8668 2.49083L78.9293 1.91071L77.6139 4.03662ZM78.5514 4.61673L77.2359 6.74264C78.5014 7.52577 79.9963 7.7069 81.441 7.0654L80.4264 4.78054L79.4117 2.49569C79.4255 2.48958 79.462 2.47536 79.5187 2.46526C79.5764 2.45496 79.6409 2.4515 79.7064 2.45723C79.8449 2.46933 79.9038 2.51369 79.8668 2.49083L78.5514 4.61673ZM80.4264 4.78054L81.441 7.0654L82.3785 6.64909L81.3639 4.36424L80.3492 2.07938L79.4117 2.49569L80.4264 4.78054ZM81.3639 4.36424L82.3785 6.64909L83.316 6.23279L82.3014 3.94793L81.2867 1.66307L80.3492 2.07938L81.3639 4.36424ZM82.3014 3.94793L83.316 6.23279C83.6914 6.06605 84.0229 5.99039 84.321 5.97312L84.1764 3.4773L84.0317 0.981489C83.0798 1.03664 82.1613 1.27473 81.2867 1.66307L82.3014 3.94793ZM84.1764 3.4773L84.321 5.97312L85.2585 5.91879L85.1139 3.42298L84.9692 0.927167L84.0317 0.981489L84.1764 3.4773ZM85.1139 3.42298L85.2585 5.91879L86.196 5.86447L86.0514 3.36866L85.9067 0.872845L84.9692 0.927167L85.1139 3.42298ZM86.0514 3.36866L86.196 5.86447C86.7496 5.83239 87.3031 5.8241 87.8565 5.83957L87.9264 3.34054L87.9962 0.841517C87.2996 0.822047 86.6031 0.832499 85.9067 0.872845L86.0514 3.36866ZM87.9264 3.34054L87.8565 5.83957L88.794 5.86577L88.8639 3.36674L88.9337 0.867721L87.9962 0.841517L87.9264 3.34054ZM88.8639 3.36674L88.794 5.86577L89.7315 5.89197L89.8014 3.39295L89.8712 0.893924L88.9337 0.867721L88.8639 3.36674ZM89.8014 3.39295L89.7315 5.89197C90.0495 5.90086 90.392 5.96694 90.7692 6.11383L91.6764 3.78423L92.5835 1.45463C91.7107 1.11475 90.8032 0.919973 89.8712 0.893924L89.8014 3.39295ZM91.6764 3.78423L90.7692 6.11383L91.7067 6.4789L92.6139 4.14931L93.521 1.81971L92.5835 1.45463L91.6764 3.78423ZM92.6139 4.14931L91.7067 6.4789L92.6442 6.84398L93.5514 4.51438L94.4585 2.18479L93.521 1.81971L92.6139 4.14931ZM93.5514 4.51438L92.6442 6.84398C93.7641 7.28011 94.9522 7.34803 96.1221 7.00908L95.4264 4.60784L94.7306 2.20659C94.6505 2.22981 94.5886 2.23543 94.4585 2.18479L93.5514 4.51438ZM95.4264 4.60784L96.1221 7.00908L97.0596 6.73745L96.3639 4.33621L95.6681 1.93497L94.7306 2.20659L95.4264 4.60784ZM96.3639 4.33621L97.0596 6.73745L97.9971 6.46582L97.3014 4.06458L96.6056 1.66334L95.6681 1.93497L96.3639 4.33621ZM97.3014 4.06458L97.9971 6.46582C98.3744 6.35649 98.7311 6.31454 99.0769 6.32831L99.1764 3.83029L99.2758 1.33227C98.3716 1.29626 97.4783 1.4105 96.6056 1.66334L97.3014 4.06458ZM99.1764 3.83029L99.0769 6.32831L100.014 6.36564L100.114 3.86762L100.213 1.3696L99.2758 1.33227L99.1764 3.83029ZM100.114 3.86762L100.014 6.36564L100.952 6.40297L101.051 3.90495L101.151 1.40693L100.213 1.3696L100.114 3.86762ZM101.051 3.90495L100.952 6.40297C101.915 6.44131 102.858 6.28669 103.765 5.9637L102.926 3.60851L102.088 1.25332C101.745 1.37536 101.438 1.41836 101.151 1.40693L101.051 3.90495ZM102.926 3.60851L103.765 5.9637L104.702 5.62993L103.864 3.27474L103.025 0.919552L102.088 1.25332L102.926 3.60851ZM103.864 3.27474L104.702 5.62993L105.64 5.29616L104.801 2.94097L103.963 0.585782L103.025 0.919552L103.864 3.27474ZM104.801 2.94097L105.64 5.29616C105.858 5.21838 106.026 5.21287 106.19 5.2454L106.676 2.7932L107.163 0.340995C106.077 0.125534 104.994 0.218533 103.963 0.585782L104.801 2.94097ZM106.676 2.7932L106.19 5.2454L107.127 5.4314L107.614 2.9792L108.1 0.526993L107.163 0.340995L106.676 2.7932ZM107.614 2.9792L107.127 5.4314L108.065 5.6174L108.551 3.1652L109.038 0.712991L108.1 0.526993L107.614 2.9792ZM108.551 3.1652L108.065 5.6174C108.609 5.72527 109.155 5.86174 109.704 6.02746L110.426 3.63396L111.148 1.24046C110.448 1.02916 109.744 0.853117 109.038 0.712991L108.551 3.1652ZM110.426 3.63396L109.704 6.02746L110.642 6.31023L111.364 3.91673L112.086 1.52323L111.148 1.24046L110.426 3.63396ZM111.364 3.91673L110.642 6.31023L111.579 6.59299L112.301 4.1995L113.023 1.806L112.086 1.52323L111.364 3.91673ZM112.301 4.1995L111.579 6.59299C112.711 6.93439 113.872 6.90801 114.985 6.52735L114.176 4.16176L113.368 1.79618C113.231 1.84286 113.141 1.84163 113.023 1.806L112.301 4.1995ZM114.176 4.16176L114.985 6.52735L115.923 6.20685L115.114 3.84127L114.305 1.47568L113.368 1.79618L114.176 4.16176ZM115.114 3.84127L115.923 6.20685L116.86 5.88635L116.051 3.52077L115.243 1.15518L114.305 1.47568L115.114 3.84127ZM116.051 3.52077L116.86 5.88635C117.102 5.80353 117.3 5.79385 117.492 5.82771L117.926 3.36579L118.361 0.903865C117.303 0.717034 116.25 0.810663 115.243 1.15518L116.051 3.52077ZM117.926 3.36579L117.492 5.82771L118.429 5.99323L118.864 3.53131L119.299 1.06939L118.361 0.903865L117.926 3.36579ZM118.864 3.53131L118.429 5.99323L119.367 6.15876L119.801 3.69683L120.236 1.23491L119.299 1.06939L118.864 3.53131ZM119.801 3.69683L119.367 6.15876C119.99 6.26878 120.613 6.37952 121.236 6.49098L121.676 4.03004L122.117 1.56909C121.49 1.45698 120.863 1.34558 120.236 1.23491L119.801 3.69683ZM121.676 4.03004L121.236 6.49098L122.174 6.65867L122.614 4.19772L123.054 1.73678L122.117 1.56909L121.676 4.03004ZM122.614 4.19772L122.174 6.65867L123.111 6.82635L123.551 4.36541L123.992 1.90446L123.054 1.73678L122.614 4.19772ZM123.551 4.36541L123.111 6.82635C124.326 7.04363 125.499 6.82375 126.556 6.28891L125.426 4.05847L124.297 1.82802C124.104 1.92601 124.027 1.91077 123.992 1.90446L123.551 4.36541ZM125.426 4.05847L126.556 6.28891L127.493 5.81429L126.364 3.58384L125.235 1.35339L124.297 1.82802L125.426 4.05847ZM126.364 3.58384L127.493 5.81429L128.431 5.33966L127.301 3.10921L126.172 0.878765L125.235 1.35339L126.364 3.58384ZM127.301 3.10921L128.431 5.33966C128.382 5.36415 128.238 5.41728 128.04 5.40143C127.851 5.38638 127.762 5.32087 127.79 5.33972L129.176 3.25915L130.562 1.17858C129.254 0.306623 127.67 0.120499 126.172 0.878765L127.301 3.10921ZM129.176 3.25915L127.79 5.33972L128.728 5.96428L130.114 3.88371L131.5 1.80314L130.562 1.17858L129.176 3.25915ZM130.114 3.88371L128.728 5.96428L129.665 6.58885L131.051 4.50828L132.437 2.4277L131.5 1.80314L130.114 3.88371ZM131.051 4.50828L129.665 6.58885C130.31 7.01805 131.105 7.3246 132.013 7.316C132.918 7.30742 133.705 6.98725 134.339 6.55287L132.926 4.49051L131.513 2.42815C131.522 2.42199 131.685 2.31889 131.965 2.31623C132.248 2.31355 132.418 2.41487 132.437 2.4277L131.051 4.50828ZM132.926 4.49051L134.339 6.55287L135.277 5.91054L133.864 3.84818L132.451 1.78582L131.513 2.42815L132.926 4.49051ZM133.864 3.84818L135.277 5.91054L136.214 5.26821L134.801 3.20585L133.388 1.14349L132.451 1.78582L133.864 3.84818ZM134.801 3.20585L136.214 5.26821C136.304 5.20682 136.314 5.22126 136.247 5.23499C136.215 5.2417 136.175 5.24599 136.13 5.24462C136.086 5.24325 136.05 5.23664 136.026 5.23007L136.676 2.81623L137.327 0.402383C135.873 0.0103502 134.503 0.379871 133.388 1.14349L134.801 3.20585ZM136.676 2.81623L136.026 5.23007L136.963 5.48278L137.614 3.06893L138.265 0.655091L137.327 0.402383L136.676 2.81623ZM137.614 3.06893L136.963 5.48278L137.901 5.73548L138.551 3.32164L139.202 0.907798L138.265 0.655091L137.614 3.06893ZM138.551 3.32164L137.901 5.73548C138.405 5.87149 138.918 6.05009 139.439 6.27412L140.426 3.97727L141.414 1.68042C140.685 1.36723 139.947 1.10874 139.202 0.907798L138.551 3.32164ZM140.426 3.97727L139.439 6.27412L140.377 6.67705L141.364 4.3802L142.351 2.08335L141.414 1.68042L140.426 3.97727ZM141.364 4.3802L140.377 6.67705L141.314 7.07997L142.301 4.78312L143.289 2.48627L142.351 2.08335L141.364 4.3802ZM142.301 4.78312L141.314 7.07997C142.342 7.52191 143.448 7.6849 144.578 7.50111L144.176 5.03355L143.775 2.56598C143.655 2.58553 143.51 2.58157 143.289 2.48627L142.301 4.78312ZM144.176 5.03355L144.578 7.50111L145.515 7.34861L145.114 4.88105L144.712 2.41348L143.775 2.56598L144.176 5.03355ZM145.114 4.88105L145.515 7.34861L146.453 7.19611L146.051 4.72855L145.65 2.26098L144.712 2.41348L145.114 4.88105ZM146.051 4.72855L146.453 7.19611C146.87 7.12818 147.283 7.1142 147.695 7.15255L147.926 4.66331L148.158 2.17407C147.32 2.09607 146.482 2.12558 145.65 2.26098L146.051 4.72855ZM147.926 4.66331L147.695 7.15255L148.632 7.23982L148.864 4.75058L149.096 2.26134L148.158 2.17407L147.926 4.66331ZM148.864 4.75058L148.632 7.23982L149.57 7.32708L149.801 4.83785L150.033 2.34861L149.096 2.26134L148.864 4.75058ZM149.801 4.83785L149.57 7.32708C150.627 7.4255 151.656 7.25107 152.625 6.85336L151.676 4.54047L150.727 2.22757C150.447 2.34272 150.226 2.36654 150.033 2.34861L149.801 4.83785ZM151.676 4.54047L152.625 6.85336L153.563 6.46872L152.614 4.15582L151.665 1.84293L150.727 2.22757L151.676 4.54047ZM152.614 4.15582L153.563 6.46872L154.5 6.08407L153.551 3.77118L152.602 1.45828L151.665 1.84293L152.614 4.15582ZM153.551 3.77118L154.5 6.08407C154.766 5.97511 154.969 5.95681 155.145 5.97677L155.426 3.49263L155.707 1.00849C154.634 0.886981 153.587 1.05438 152.602 1.45828L153.551 3.77118ZM155.426 3.49263L155.145 5.97677L156.083 6.08287L156.364 3.59872L156.645 1.11458L155.707 1.00849L155.426 3.49263ZM156.364 3.59872L156.083 6.08287L157.02 6.18896L157.301 3.70482L157.582 1.22068L156.645 1.11458L156.364 3.59872ZM157.301 3.70482L157.02 6.18896C158.058 6.3064 159.077 6.1666 160.046 5.80653L159.176 3.46285L158.306 1.11917C158.026 1.22319 157.795 1.2447 157.582 1.22068L157.301 3.70482ZM159.176 3.46285L160.046 5.80653L160.984 5.45847L160.114 3.11478L159.244 0.771099L158.306 1.11917L159.176 3.46285ZM160.114 3.11478L160.984 5.45847L161.921 5.1104L161.051 2.76672L160.181 0.423032L159.244 0.771099L160.114 3.11478ZM161.051 2.76672L161.921 5.1104C161.94 5.10336 161.948 5.10253 161.944 5.1031C161.943 5.10335 161.94 5.10379 161.936 5.1041C161.931 5.10442 161.926 5.10454 161.921 5.10441C161.917 5.10428 161.912 5.10391 161.909 5.10353C161.906 5.10315 161.905 5.10285 161.906 5.10308C161.908 5.10346 161.922 5.10665 161.948 5.11793L162.926 2.81725L163.905 0.516564C162.704 0.0060339 161.418 -0.0359697 160.181 0.423032L161.051 2.76672ZM162.926 2.81725L161.948 5.11793L162.886 5.51653L163.864 3.21585L164.842 0.915163L163.905 0.516564L162.926 2.81725ZM163.864 3.21585L162.886 5.51653L163.823 5.91513L164.801 3.61445L165.78 1.31376L164.842 0.915163L163.864 3.21585ZM164.801 3.61445L163.823 5.91513C164.73 6.30052 165.685 6.51298 166.673 6.51421L166.676 4.01421L166.679 1.51421C166.418 1.51389 166.123 1.45983 165.78 1.31376L164.801 3.61445ZM166.676 4.01421L166.673 6.51421L167.611 6.51538L167.614 4.01538L167.617 1.51538L166.679 1.51421L166.676 4.01421ZM167.614 4.01538L167.611 6.51538L168.548 6.51654L168.551 4.01655L168.554 1.51655L167.617 1.51538L167.614 4.01538ZM168.551 4.01655L168.548 6.51654C169.031 6.51714 169.516 6.55871 170.004 6.64239L170.426 4.17826L170.848 1.71413C170.087 1.58375 169.322 1.5175 168.554 1.51655L168.551 4.01655ZM170.426 4.17826L170.004 6.64239L170.942 6.80294L171.364 4.33881L171.786 1.87468L170.848 1.71413L170.426 4.17826ZM171.364 4.33881L170.942 6.80294L171.879 6.96349L172.301 4.49936L172.723 2.03523L171.786 1.87468L171.364 4.33881ZM172.301 4.49936L171.879 6.96349C172.763 7.11478 173.653 7.12596 174.539 6.99594L174.176 4.52241L173.814 2.04887C173.45 2.10219 173.09 2.098 172.723 2.03523L172.301 4.49936ZM174.176 4.52241L174.539 6.99594L175.477 6.85844L175.114 4.3849L174.751 1.91137L173.814 2.04887L174.176 4.52241ZM175.114 4.3849L175.477 6.85844L176.414 6.72094L176.051 4.2474L175.689 1.77386L174.751 1.91137L175.114 4.3849ZM176.051 4.2474L176.414 6.72094C176.927 6.6457 177.438 6.60625 177.947 6.60201L177.926 4.10209L177.906 1.60218C177.165 1.60835 176.426 1.66576 175.689 1.77386L176.051 4.2474ZM177.926 4.10209L177.947 6.60201L178.885 6.5942L178.864 4.09429L178.843 1.59438L177.906 1.60218L177.926 4.10209ZM178.864 4.09429L178.885 6.5942L179.822 6.5864L179.801 4.08649L179.781 1.58658L178.843 1.59438L178.864 4.09429ZM179.801 4.08649L179.822 6.5864C180.373 6.58182 180.923 6.60181 181.475 6.64643L181.676 4.15459L181.878 1.66274C181.179 1.60617 180.48 1.58075 179.781 1.58658L179.801 4.08649ZM181.676 4.15459L181.475 6.64643L182.412 6.72234L182.614 4.23049L182.816 1.73864L181.878 1.66274L181.676 4.15459ZM182.614 4.23049L182.412 6.72234L183.35 6.79824L183.551 4.30639L183.753 1.81455L182.816 1.73864L182.614 4.23049ZM183.551 4.30639L183.35 6.79824C184.133 6.86169 184.917 6.85023 185.7 6.76414L185.426 4.27914L185.153 1.79414C184.685 1.84559 184.219 1.8523 183.753 1.81455L183.551 4.30639ZM185.426 4.27914L185.7 6.76414L186.637 6.66099L186.364 4.17599L186.09 1.69098L185.153 1.79414L185.426 4.27914ZM186.364 4.17599L186.637 6.66099L187.575 6.55784L187.301 4.07283L187.028 1.58783L186.09 1.69098L186.364 4.17599ZM187.301 4.07283L187.575 6.55784C188.242 6.48441 188.909 6.39377 189.576 6.28597L189.176 3.81805L188.777 1.35012C188.194 1.4445 187.611 1.52372 187.028 1.58783L187.301 4.07283ZM189.176 3.81805L189.576 6.28597L190.513 6.13434L190.114 3.66641L189.715 1.19848L188.777 1.35012L189.176 3.81805ZM190.114 3.66641L190.513 6.13434L191.451 5.9827L191.051 3.51478L190.652 1.04685L189.715 1.19848L190.114 3.66641ZM191.051 3.51478L191.451 5.9827C191.766 5.93161 192.079 5.93892 192.403 6.00838L192.926 3.56368L193.449 1.11898C192.524 0.921053 191.586 0.895764 190.652 1.04685L191.051 3.51478ZM192.926 3.56368L192.403 6.00838L193.341 6.20891L193.864 3.76421L194.387 1.31952L193.449 1.11898L192.926 3.56368ZM193.864 3.76421L193.341 6.20891L194.278 6.40945L194.801 3.96475L195.324 1.52005L194.387 1.31952L193.864 3.76421ZM194.801 3.96475L194.278 6.40945C195.237 6.61447 196.207 6.6211 197.169 6.42807L196.676 3.97701L196.184 1.52595C195.895 1.58396 195.616 1.58241 195.324 1.52005L194.801 3.96475ZM196.676 3.97701L197.169 6.42807L198.106 6.2398L197.614 3.78874L197.122 1.33768L196.184 1.52595L196.676 3.97701ZM197.614 3.78874L198.106 6.2398L199.044 6.05153L198.551 3.60046L198.059 1.1494L197.122 1.33768L197.614 3.78874ZM198.551 3.60046L199.044 6.05153C199.114 6.03731 199.207 6.02972 199.393 6.11417L200.426 3.83753L201.459 1.56089C200.395 1.07822 199.238 0.912588 198.059 1.1494L198.551 3.60046ZM200.426 3.83753L199.393 6.11417L200.331 6.53952L201.364 4.26288L202.397 1.98624L201.459 1.56089L200.426 3.83753ZM201.364 4.26288L200.331 6.53952L201.268 6.96486L202.301 4.68822L203.334 2.41158L202.397 1.98624L201.364 4.26288ZM202.301 4.68822L201.268 6.96486C202.318 7.44127 203.459 7.61473 204.626 7.40112L204.176 4.94198L203.726 2.48283C203.643 2.49801 203.534 2.5023 203.334 2.41158L202.301 4.68822ZM204.176 4.94198L204.626 7.40112L205.564 7.22954L205.114 4.77039L204.664 2.31124L203.726 2.48283L204.176 4.94198ZM205.114 4.77039L205.564 7.22954L206.501 7.05795L206.051 4.5988L205.601 2.13965L204.664 2.31124L205.114 4.77039ZM206.051 4.5988L206.501 7.05795C206.955 6.97495 207.403 6.94147 207.848 6.95548L207.926 4.45671L208.005 1.95795C207.2 1.93262 206.398 1.99386 205.601 2.13965L206.051 4.5988ZM207.926 4.45671L207.848 6.95548L208.785 6.98498L208.864 4.48622L208.942 1.98746L208.005 1.95795L207.926 4.45671ZM208.864 4.48622L208.785 6.98498L209.723 7.01449L209.801 4.51572L209.88 2.01696L208.942 1.98746L208.864 4.48622ZM209.801 4.51572L209.723 7.01449C210.236 7.03065 210.752 7.08109 211.27 7.16642L211.676 4.69968L212.083 2.23293C211.351 2.11233 210.616 2.04013 209.88 2.01696L209.801 4.51572ZM211.676 4.69968L211.27 7.16642L212.207 7.32087L212.614 4.85413L213.02 2.38738L212.083 2.23293L211.676 4.69968ZM212.614 4.85413L212.207 7.32087L213.145 7.47532L213.551 5.00858L213.958 2.54183L213.02 2.38738L212.614 4.85413ZM213.551 5.00858L213.145 7.47532C214.155 7.64175 215.163 7.57076 216.14 7.27965L215.426 4.88372L214.713 2.48779C214.44 2.56909 214.198 2.58134 213.958 2.54183L213.551 5.00858ZM215.426 4.88372L216.14 7.27965L217.078 7.00035L216.364 4.60442L215.65 2.20849L214.713 2.48779L215.426 4.88372ZM216.364 4.60442L217.078 7.00035L218.015 6.72104L217.301 4.32511L216.588 1.92918L215.65 2.20849L216.364 4.60442ZM217.301 4.32511L218.015 6.72104C218.194 6.66768 218.342 6.66724 218.513 6.71424L219.176 4.30394L219.84 1.89365C218.761 1.59646 217.658 1.61013 216.588 1.92918L217.301 4.32511ZM219.176 4.30394L218.513 6.71424L219.45 6.97238L220.114 4.56208L220.778 2.15178L219.84 1.89365L219.176 4.30394ZM220.114 4.56208L219.45 6.97238L220.388 7.23052L221.051 4.82022L221.715 2.40992L220.778 2.15178L220.114 4.56208ZM221.051 4.82022L220.388 7.23052C221.897 7.64607 223.299 7.21815 224.405 6.40601L222.926 4.39043L221.447 2.37486C221.354 2.4437 221.349 2.42375 221.43 2.40504C221.471 2.39575 221.522 2.38953 221.578 2.39083C221.634 2.39212 221.681 2.40055 221.715 2.40992L221.051 4.82022ZM222.926 4.39043L224.405 6.40601L225.343 5.71808L223.864 3.70251L222.385 1.68693L221.447 2.37486L222.926 4.39043ZM223.864 3.70251L225.343 5.71808L226.28 5.03016L224.801 3.01458L223.322 0.999008L222.385 1.68693L223.864 3.70251ZM224.801 3.01458L226.28 5.03016C226.283 5.02856 226.115 5.14753 225.81 5.15624C225.498 5.16513 225.305 5.05157 225.275 5.03155L226.676 2.96111L228.078 0.890672C227.423 0.447685 226.604 0.131551 225.668 0.158269C224.737 0.184797 223.945 0.541995 223.322 0.999008L224.801 3.01458ZM226.676 2.96111L225.275 5.03155L226.213 5.666L227.614 3.59556L229.015 1.52512L228.078 0.890672L226.676 2.96111ZM227.614 3.59556L226.213 5.666L227.15 6.30046L228.551 4.23002L229.953 2.15958L229.015 1.52512L227.614 3.59556ZM228.551 4.23002L227.15 6.30046C228.284 7.06749 229.672 7.41617 231.131 6.9877L230.426 4.58906L229.722 2.19042C229.746 2.1834 229.783 2.17557 229.83 2.17316C229.877 2.17074 229.922 2.17447 229.959 2.18162C230.036 2.19631 230.035 2.21568 229.953 2.15958L228.551 4.23002ZM230.426 4.58906L231.131 6.9877L232.069 6.71229L231.364 4.31365L230.659 1.91501L229.722 2.19042L230.426 4.58906ZM231.364 4.31365L232.069 6.71229L233.006 6.43688L232.301 4.03824L231.597 1.6396L230.659 1.91501L231.364 4.31365ZM232.301 4.03824L233.006 6.43688C233.375 6.32844 233.722 6.28855 234.058 6.30447L234.176 3.80728L234.295 1.31008C233.381 1.26674 232.478 1.38083 231.597 1.6396L232.301 4.03824ZM234.176 3.80728L234.058 6.30447L234.995 6.34892L235.114 3.85172L235.232 1.35453L234.295 1.31008L234.176 3.80728ZM235.114 3.85172L234.995 6.34892L235.933 6.39337L236.051 3.89617L236.17 1.39898L235.232 1.35453L235.114 3.85172ZM236.051 3.89617L235.933 6.39337C236.915 6.43994 237.875 6.27832 238.795 5.93783L237.926 3.59343L237.058 1.24903C236.728 1.37146 236.437 1.41167 236.17 1.39898L236.051 3.89617ZM237.926 3.59343L238.795 5.93783L239.732 5.59065L238.864 3.24625L237.996 0.901844L237.058 1.24903L237.926 3.59343ZM238.864 3.24625L239.732 5.59065L240.67 5.24346L239.801 2.89906L238.933 0.554658L237.996 0.901844L238.864 3.24625ZM239.801 2.89906L240.67 5.24346C240.658 5.24784 240.629 5.25689 240.586 5.26236C240.543 5.26791 240.496 5.26823 240.452 5.2631C240.358 5.25225 240.333 5.2249 240.388 5.25809L241.676 3.11568L242.965 0.973277C241.759 0.248129 240.344 0.0322719 238.933 0.554658L239.801 2.89906ZM241.676 3.11568L240.388 5.25809L241.325 5.8219L242.614 3.6795L243.902 1.53709L242.965 0.973277L241.676 3.11568ZM242.614 3.6795L241.325 5.8219L242.263 6.38572L243.551 4.24331L244.84 2.1009L243.902 1.53709L242.614 3.6795ZM243.551 4.24331L242.263 6.38572C242.909 6.77427 243.678 7.03155 244.532 7.01669C245.384 7.00188 246.14 6.71987 246.768 6.32006L245.426 4.21072L244.084 2.10137C244.083 2.1024 244.115 2.08159 244.181 2.06006C244.249 2.03775 244.34 2.01928 244.445 2.01744C244.675 2.01345 244.819 2.08823 244.84 2.1009L243.551 4.24331ZM245.426 4.21072L246.768 6.32006L247.706 5.72366L246.364 3.61431L245.022 1.50497L244.084 2.10137L245.426 4.21072ZM246.364 3.61431L247.706 5.72366L248.643 5.12725L247.301 3.01791L245.959 0.908566L245.022 1.50497L246.364 3.61431ZM247.301 3.01791L248.643 5.12725C248.687 5.09956 248.633 5.14364 248.497 5.15779C248.432 5.16453 248.366 5.16226 248.306 5.15252C248.248 5.14295 248.208 5.1285 248.191 5.12118L249.176 2.82354L250.162 0.5259C248.701 -0.100495 247.208 0.114182 245.959 0.908566L247.301 3.01791ZM249.176 2.82354L248.191 5.12118L249.129 5.52322L250.114 3.22558L251.099 0.927936L250.162 0.5259L249.176 2.82354ZM250.114 3.22558L249.129 5.52322L250.066 5.92525L251.051 3.62761L252.037 1.32997L251.099 0.927936L250.114 3.22558ZM251.051 3.62761L250.066 5.92525C251.055 6.34942 252.114 6.53121 253.203 6.40984L252.926 3.92521L252.65 1.44058C252.489 1.45846 252.298 1.44185 252.037 1.32997L251.051 3.62761ZM252.926 3.92521L253.203 6.40984L254.141 6.3054L253.864 3.82077L253.587 1.33614L252.65 1.44058L252.926 3.92521ZM253.864 3.82077L254.141 6.3054L255.078 6.20096L254.801 3.71633L254.525 1.2317L253.587 1.33614L253.864 3.82077ZM254.801 3.71633L255.078 6.20096C255.849 6.11511 256.613 5.96168 257.369 5.7434L256.676 3.34139L255.983 0.939375C255.49 1.08177 255.004 1.17829 254.525 1.2317L254.801 3.71633ZM256.676 3.34139L257.369 5.7434L258.307 5.4729L257.614 3.07088L256.921 0.668873L255.983 0.939375L256.676 3.34139ZM257.614 3.07088L258.307 5.4729L259.244 5.20239L258.551 2.80038L257.858 0.398372L256.921 0.668873L257.614 3.07088ZM258.551 2.80038L259.244 5.20239C259.23 5.20663 259.203 5.21246 259.168 5.21457C259.132 5.21668 259.098 5.21437 259.069 5.20948C259.009 5.19923 259.015 5.18558 259.095 5.23574L260.426 3.1199L261.758 1.00406C260.62 0.288014 259.265 -0.00738621 257.858 0.398372L258.551 2.80038ZM260.426 3.1199L259.095 5.23574L260.032 5.82577L261.364 3.70992L262.695 1.59408L261.758 1.00406L260.426 3.1199ZM261.364 3.70992L260.032 5.82577L260.97 6.41579L262.301 4.29995L263.633 2.18411L262.695 1.59408L261.364 3.70992ZM262.301 4.29995L260.97 6.41579C262.112 7.13466 263.473 7.42707 264.883 7.01198L264.176 4.61384L263.47 2.2157C263.485 2.21129 263.512 2.20514 263.549 2.2028C263.586 2.20045 263.621 2.20269 263.652 2.20774C263.715 2.21834 263.711 2.23328 263.633 2.18411L262.301 4.29995ZM264.176 4.61384L264.883 7.01198L265.82 6.73584L265.114 4.3377L264.407 1.93957L263.47 2.2157L264.176 4.61384ZM265.114 4.3377L265.82 6.73584L266.758 6.45971L266.051 4.06157L265.345 1.66343L264.407 1.93957L265.114 4.3377ZM266.051 4.06157L266.758 6.45971C266.959 6.40046 267.129 6.39885 267.316 6.44585L267.926 4.02157L268.537 1.59728C267.474 1.32945 266.394 1.35451 265.345 1.66343L266.051 4.06157ZM267.926 4.02157L267.316 6.44585L268.253 6.68198L268.864 4.25769L269.474 1.8334L268.537 1.59728L267.926 4.02157ZM268.864 4.25769L268.253 6.68198L269.191 6.9181L269.801 4.49382L270.412 2.06953L269.474 1.8334L268.864 4.25769ZM269.801 4.49382L269.191 6.9181C270.235 7.18105 271.297 7.16915 272.334 6.8863L271.676 4.47434L271.019 2.06238C270.806 2.12034 270.618 2.12141 270.412 2.06953L269.801 4.49382ZM271.676 4.47434L272.334 6.8863L273.271 6.63069L272.614 4.21873L271.956 1.80677L271.019 2.06238L271.676 4.47434ZM272.614 4.21873L273.271 6.63069L274.209 6.37509L273.551 3.96313L272.894 1.55117L271.956 1.80677L272.614 4.21873ZM273.551 3.96313L274.209 6.37509C274.289 6.35321 274.359 6.34699 274.501 6.40352L275.426 4.08121L276.352 1.7589C275.244 1.31718 274.064 1.23224 272.894 1.55117L273.551 3.96313ZM275.426 4.08121L274.501 6.40352L275.438 6.77721L276.364 4.4549L277.29 2.13259L276.352 1.7589L275.426 4.08121ZM276.364 4.4549L275.438 6.77721L276.376 7.1509L277.301 4.82859L278.227 2.50628L277.29 2.13259L276.364 4.4549ZM277.301 4.82859L276.376 7.1509C277.329 7.5307 278.335 7.70227 279.367 7.62309L279.176 5.13041L278.985 2.63772C278.768 2.65436 278.524 2.62473 278.227 2.50628L277.301 4.82859ZM279.176 5.13041L279.367 7.62309L280.305 7.55122L280.114 5.05854L279.923 2.56585L278.985 2.63772L279.176 5.13041ZM280.114 5.05854L280.305 7.55122L281.242 7.47936L281.051 4.98667L280.86 2.49398L279.923 2.56585L280.114 5.05854ZM281.051 4.98667L281.242 7.47936C281.84 7.43358 282.437 7.39789 283.034 7.37227L282.926 4.87457L282.819 2.37687C282.166 2.40489 281.513 2.44393 280.86 2.49398L281.051 4.98667ZM282.926 4.87457L283.034 7.37227L283.971 7.33204L283.864 4.83433L283.757 2.33663L282.819 2.37687L282.926 4.87457ZM283.864 4.83433L283.971 7.33204L284.909 7.2918L284.801 4.7941L284.694 2.2964L283.757 2.33663L283.864 4.83433ZM284.801 4.7941L284.909 7.2918C285.413 7.27016 285.917 7.28498 286.423 7.3365L286.676 4.84937L286.93 2.36224C286.185 2.28642 285.44 2.26439 284.694 2.2964L284.801 4.7941ZM286.676 4.84937L286.423 7.3365L287.36 7.432L287.614 4.94487L287.867 2.45774L286.93 2.36224L286.676 4.84937ZM287.614 4.94487L287.36 7.432L288.298 7.5275L288.551 5.04037L288.805 2.55324L287.867 2.45774L287.614 4.94487ZM288.551 5.04037L288.298 7.5275C289.39 7.63871 290.447 7.44549 291.432 7.01233L290.426 4.72372L289.42 2.43511C289.156 2.55149 288.963 2.56936 288.805 2.55324L288.551 5.04037ZM290.426 4.72372L291.432 7.01233L292.37 6.60018L291.364 4.31158L290.358 2.02297L289.42 2.43511L290.426 4.72372ZM291.364 4.31158L292.37 6.60018L293.307 6.18804L292.301 3.89943L291.295 1.61082L290.358 2.02297L291.364 4.31158ZM292.301 3.89943L293.307 6.18804C293.785 5.97817 294.245 5.83072 294.689 5.73756L294.176 3.29075L293.663 0.843939C292.858 1.01283 292.068 1.27116 291.295 1.61082L292.301 3.89943ZM294.176 3.29075L294.689 5.73756L295.627 5.54103L295.114 3.09422L294.601 0.647404L293.663 0.843939L294.176 3.29075ZM295.114 3.09422L295.627 5.54103L296.564 5.34449L296.051 2.89768L295.538 0.45087L294.601 0.647404L295.114 3.09422ZM296.051 2.89768L296.564 5.34449C296.614 5.33409 296.687 5.32163 296.864 5.40431L297.926 3.14147L298.989 0.878634C297.915 0.374218 296.739 0.199226 295.538 0.45087L296.051 2.89768ZM297.926 3.14147L296.864 5.40431L297.801 5.84463L298.864 3.5818L299.927 1.31896L298.989 0.878634L297.926 3.14147ZM298.864 3.5818L297.801 5.84463L298.739 6.28496L299.801 4.02212L300.864 1.75928L299.927 1.31896L298.864 3.5818ZM299.801 4.02212L298.739 6.28496C299.069 6.44007 299.455 6.60924 299.815 6.71255C299.939 6.74822 300.363 6.87115 300.876 6.83092C301.138 6.81035 301.731 6.72614 302.297 6.26775C302.978 5.71678 303.239 4.94404 303.239 4.29116H300.739H298.239C298.239 3.66682 298.49 2.91626 299.151 2.38109C299.698 1.93851 300.262 1.86374 300.485 1.84623C300.741 1.8261 300.936 1.854 301.014 1.86703C301.108 1.88244 301.172 1.90007 301.194 1.90653C301.242 1.92017 301.159 1.89772 300.864 1.75928L299.801 4.02212ZM300.739 4.29116H303.239V4.11986H300.739H298.239V4.29116H300.739ZM300.739 4.11986L303.139 3.41935L303.039 3.07677L300.639 3.77728L298.239 4.4778L298.339 4.82038L300.739 4.11986ZM300.639 3.77728V6.27728H300.739V3.77728V1.27728H300.639V3.77728Z" fill="var(--stroke-0, white)"/>
</svg>
